<?xml version="1.0" standalone="no"?>
<!DOCTYPE svg PUBLIC "-//W3C//DTD SVG 20010904//EN"
 "http://www.w3.org/TR/2001/REC-SVG-20010904/DTD/svg10.dtd">
<svg version="1.0" xmlns="http://www.w3.org/2000/svg"
 width="256.000000pt" height="256.000000pt" viewBox="0 0 256.000000 256.000000"
 preserveAspectRatio="xMidYMid meet">
<metadata>
Created by potrace 1.14, written by Peter Selinger 2001-2017
</metadata>
<g transform="translate(0.000000,256.000000) scale(0.100000,-0.100000)"
fill="#000000" stroke="none">
<path d="M0 1280 l0 -1280 1280 0 1280 0 0 1280 0 1280 -1280 0 -1280 0 0
-1280z m2470 501 l0 -689 -222 120 c-214 116 -886 481 -1169 635 l-136 74 -8
202 c-6 192 -8 204 -31 234 -13 17 -24 36 -24 42 0 6 -4 11 -10 11 -5 0 -10
-7 -10 -15 0 -9 -11 -32 -23 -53 -22 -34 -24 -50 -30 -230 -3 -106 -9 -197
-13 -203 -10 -17 -687 -519 -699 -519 -3 0 -5 243 -5 540 l0 540 1190 0 1190
0 0 -689z m-1010 -169 c1068 -571 1005 -535 1008 -564 3 -25 -41 -3 -674 343
-373 203 -695 383 -717 399 -22 16 -44 27 -49 24 -5 -3 -7 0 -6 7 2 6 -3 14
-11 17 -9 3 -11 0 -6 -8 6 -9 2 -9 -16 0 -43 22 -52 32 -37 41 7 5 33 -3 63
-20 27 -16 228 -123 445 -239z m-690 244 c0 -4 -376 -312 -578 -475 -97 -78
-103 -82 -100 -55 3 24 53 65 338 280 342 258 340 257 340 250z m19 -51 c-28
-26 -689 -565 -694 -565 -3 0 -5 8 -5 18 0 17 118 114 630 519 41 33 77 56 79
50 2 -5 -3 -15 -10 -22z m181 0 c14 -17 35 -20 24 -4 -4 6 13 0 37 -14 24 -13
78 -44 119 -67 41 -24 86 -51 99 -61 13 -11 28 -16 34 -12 6 3 7 1 3 -5 -4 -6
1 -10 11 -10 10 1 274 -139 588 -310 314 -172 574 -313 578 -315 5 -1 7 -15 5
-29 -3 -26 -12 -21 -468 233 -256 143 -492 277 -525 298 -33 20 -68 40 -79 44
-44 17 -290 162 -336 198 -50 39 -67 48 -54 28 3 -6 -8 -4 -24 5 -32 16 -50
36 -34 36 5 0 15 -7 22 -15z m-170 -33 c0 -7 -602 -528 -688 -596 l-24 -19 4
28 c2 23 64 77 348 311 190 155 348 283 353 283 4 1 7 -3 7 -7z m177 -22 c14
-11 22 -20 17 -20 -12 1 -61 39 -51 40 5 0 20 -9 34 -20z m-179 -32 c-4 -12
-558 -506 -666 -595 -43 -35 -44 -35 -40 -11 2 19 90 100 348 321 190 163 349
296 353 296 5 1 7 -5 5 -11z m425 -100 c32 -22 66 -41 76 -43 22 -4 257 -134
317 -176 23 -15 45 -25 49 -21 5 4 4 1 0 -7 -6 -10 -4 -13 6 -9 9 3 184 -88
404 -212 345 -193 390 -221 393 -244 2 -14 1 -26 -1 -26 -10 0 -520 297 -585
341 -41 27 -71 45 -67 39 3 -6 0 -7 -9 -4 -9 3 -14 11 -13 17 1 7 -6 11 -17 9
-10 -2 -15 1 -12 6 3 5 -2 16 -12 23 -15 13 -16 12 -3 -3 7 -10 11 -18 8 -18
-10 0 -272 153 -332 194 -33 22 -63 40 -67 38 -5 -1 -8 2 -8 6 0 5 -6 9 -13 9
-18 0 -250 138 -284 168 -23 21 -16 19 42 -12 39 -20 96 -54 128 -75z m-246
85 c0 -10 -4 -10 -16 -1 -9 7 -18 13 -20 15 -2 1 5 1 16 0 11 0 20 -7 20 -14z
m178 -92 c39 -25 73 -44 78 -43 4 1 7 -3 7 -10 0 -6 3 -8 6 -5 9 9 46 -12 39
-22 -2 -5 3 -15 13 -22 15 -13 16 -12 3 4 -7 9 -10 17 -6 17 10 0 206 -114
265 -154 25 -17 46 -29 48 -28 6 6 62 -30 57 -37 -2 -5 3 -15 13 -22 15 -13
16 -12 3 4 -7 9 -10 17 -6 17 8 0 249 -138 365 -210 41 -25 88 -51 103 -58 17
-7 25 -17 21 -24 -4 -7 -3 -8 5 -4 6 4 73 -28 156 -76 141 -81 145 -84 143
-115 -2 -27 -4 -30 -20 -22 -10 6 -16 14 -13 19 3 5 0 12 -6 16 -8 4 -9 3 -5
-4 4 -7 4 -12 1 -12 -9 0 -449 266 -532 322 -40 27 -75 48 -78 48 -4 -1 -15 9
-26 22 -11 13 -17 17 -13 9 4 -9 2 -12 -7 -9 -8 3 -13 10 -12 16 2 6 -12 21
-30 32 l-32 22 30 -26 c17 -14 26 -26 22 -26 -13 0 -286 168 -360 222 -38 27
-65 44 -61 37 8 -14 18 -20 -131 71 -66 40 -135 86 -154 101 -19 15 -37 26
-41 24 -4 -2 -7 2 -7 10 0 15 41 -6 162 -84z m29 -74 c22 -17 36 -24 31 -16
-7 10 -1 8 19 -4 15 -10 80 -50 144 -89 64 -39 135 -83 157 -98 22 -14 47 -29
56 -32 8 -3 116 -68 240 -143 123 -76 265 -161 314 -190 50 -29 142 -84 205
-122 112 -67 115 -70 116 -106 2 -36 2 -36 -22 -20 -28 18 -32 28 -8 19 14 -6
15 -4 4 9 -9 11 -15 13 -20 5 -9 -15 -519 301 -587 363 -13 11 -23 17 -23 13
0 -5 -9 2 -21 15 -11 13 -17 18 -13 10 4 -9 2 -12 -7 -9 -8 3 -13 10 -12 16 1
5 -5 16 -15 24 -15 12 -16 11 -3 -4 7 -10 11 -18 8 -18 -9 0 -306 188 -362
229 -27 20 -53 37 -57 37 -5 1 -13 2 -19 3 -5 0 -8 5 -5 10 4 5 -13 24 -36 41
l-43 32 35 -31 c19 -17 31 -31 28 -31 -13 0 -204 123 -250 162 -27 21 -52 37
-57 33 -10 -5 -24 11 -27 31 -2 13 169 -90 230 -139z m-405 108 c-8 -7 -165
-156 -349 -329 -298 -280 -335 -312 -338 -289 -2 14 4 33 15 45 15 17 279 249
603 531 41 35 77 63 79 61 3 -3 -2 -11 -10 -19z m11 -29 c0 -7 -158 -168 -351
-356 -307 -301 -350 -340 -347 -313 2 26 58 83 348 356 190 179 346 326 348
326 1 1 2 -5 2 -13z m265 -44 c39 -25 87 -58 108 -74 20 -16 37 -27 37 -23 0
3 9 1 21 -5 11 -7 18 -14 15 -17 -3 -4 1 -15 11 -25 9 -10 13 -18 9 -18 -11 0
-186 120 -230 157 -22 18 -42 31 -44 28 -3 -3 -11 0 -18 6 -16 13 -8 32 9 22
7 -4 44 -27 82 -51z m-312 -66 c-719 -753 -653 -687 -653 -649 0 28 33 64 313
341 398 395 381 378 386 368 2 -4 -19 -31 -46 -60z m287 30 c25 -16 70 -49
100 -72 30 -23 58 -41 62 -40 9 1 312 -199 334 -222 10 -9 21 -18 26 -18 4 -1
13 -2 19 -3 5 0 8 -5 5 -10 -3 -4 4 -17 17 -27 l22 -19 -19 23 c-11 12 -16 22
-13 22 14 0 546 -357 541 -363 -3 -3 0 -8 7 -13 8 -5 10 -3 4 6 -12 19 0 13
173 -100 156 -101 162 -106 162 -139 0 -28 -3 -33 -19 -28 -21 5 -504 335
-598 409 -35 26 -63 46 -63 43 0 -3 -14 9 -31 27 -17 18 -27 27 -23 19 4 -9 2
-12 -7 -9 -8 3 -13 10 -12 16 1 5 -8 18 -20 28 l-22 19 20 -24 c11 -13 15 -22
9 -20 -27 10 -356 244 -409 291 -33 29 -54 45 -46 35 7 -9 9 -17 3 -17 -12 0
-34 25 -27 32 3 3 -3 11 -12 19 -16 13 -17 12 -4 -3 7 -10 10 -18 7 -18 -11 0
-94 58 -168 117 -38 30 -68 51 -68 47 0 -3 -7 -1 -15 6 -17 14 -10 34 8 23 7
-4 32 -21 57 -37z m96 -128 c23 -21 46 -37 51 -36 12 4 238 -152 300 -205 26
-23 43 -36 39 -29 -7 11 -4 12 13 2 12 -6 19 -15 17 -19 -3 -4 7 -19 22 -32
l27 -24 -24 28 c-35 39 -20 34 56 -21 38 -27 111 -77 163 -112 52 -35 129 -89
171 -120 41 -32 90 -65 107 -74 18 -9 30 -21 27 -25 -2 -5 3 -8 13 -7 9 0 16
-4 15 -11 -1 -6 5 -17 15 -25 15 -12 16 -11 3 5 -7 9 -11 17 -7 17 7 0 264
-176 281 -192 12 -12 -113 -2 -129 10 -6 5 -105 78 -221 162 -115 84 -250 187
-300 229 -49 42 -85 70 -81 62 6 -9 5 -12 -5 -9 -8 3 -13 10 -12 15 1 6 -15
25 -35 44 l-37 34 29 -32 c17 -18 26 -33 22 -33 -9 0 -299 213 -358 264 -27
23 -52 41 -56 41 -15 0 -215 151 -247 186 -29 30 -27 30 35 -12 36 -23 83 -60
106 -81z m-347 84 c-8 -10 -165 -188 -349 -396 -332 -374 -335 -377 -338 -341
-4 44 -27 17 381 443 273 284 353 361 306 294z m308 -105 c23 -21 44 -37 46
-35 6 4 194 -132 272 -197 33 -27 65 -50 70 -50 6 0 10 -5 10 -12 0 -6 4 -15
9 -20 5 -5 6 -3 2 5 -4 6 -5 12 -2 12 7 0 410 -293 466 -340 25 -20 71 -53
103 -74 32 -20 56 -40 53 -45 -3 -5 4 -17 17 -27 l22 -19 -19 23 c-11 12 -16
22 -12 22 14 0 148 -104 138 -108 -6 -2 -20 2 -31 8 -12 6 -21 7 -21 2 0 -15
-54 -21 -69 -9 -12 10 -13 9 -7 -3 5 -8 -6 1 -23 20 -18 19 -29 28 -26 20 4
-8 -3 -3 -16 11 -13 14 -49 46 -79 70 -30 24 -83 68 -117 97 -34 30 -63 52
-66 50 -7 -5 -37 24 -32 32 2 4 -5 16 -18 26 l-22 19 19 -22 c11 -13 16 -23
13 -23 -10 0 -398 311 -486 389 -41 36 -78 66 -82 66 -11 0 -180 140 -219 181
l-35 37 50 -34 c28 -18 69 -51 92 -72z m-337 21 c-23 -29 -180 -221 -348 -426
l-307 -373 -3 40 c-3 40 -1 43 274 348 153 170 297 328 320 353 23 25 54 60
69 78 44 53 40 36 -5 -20z m607 -26 c138 -88 204 -133 221 -152 9 -10 11 -10
7 -2 -6 11 -3 12 14 2 12 -6 19 -15 16 -19 -2 -5 3 -15 13 -22 15 -13 16 -12
3 4 -7 9 -11 17 -7 17 8 0 316 -192 394 -247 35 -24 86 -55 113 -69 27 -13 47
-29 44 -33 -2 -5 3 -15 13 -22 16 -13 16 -13 2 5 -21 27 -11 22 143 -74 111
-69 137 -89 137 -108 0 -16 -4 -21 -12 -16 -9 5 -9 2 1 -9 7 -9 11 -17 7 -17
-11 0 -588 380 -633 417 -24 19 -43 31 -43 27 0 -4 -6 1 -14 12 -8 10 -23 19
-33 19 -10 0 -17 5 -16 12 1 6 -5 17 -15 25 -15 12 -16 11 -3 -4 7 -10 11 -18
7 -18 -8 0 -285 181 -351 230 -30 22 -56 40 -57 39 -7 -5 -49 23 -44 28 3 4
-1 15 -11 25 -27 30 -9 21 104 -50z m-320 -7 c33 -30 64 -55 67 -55 8 0 196
-150 280 -224 38 -34 72 -61 76 -61 3 0 145 -112 314 -250 169 -137 315 -256
324 -263 12 -9 14 -15 5 -20 -6 -4 -13 -17 -14 -30 -4 -20 -12 -16 -89 50 -47
40 -129 115 -182 167 -54 52 -98 91 -98 87 0 -4 -9 -2 -20 4 -11 6 -18 14 -16
19 3 4 -48 59 -112 122 l-117 114 100 -102 c55 -57 96 -103 92 -103 -10 0
-411 346 -456 393 -19 20 -38 34 -42 31 -4 -2 -11 1 -15 7 -5 8 -3 9 7 4 8 -5
11 -4 6 1 -5 5 -12 9 -17 9 -12 0 -170 136 -170 146 0 18 16 8 77 -46z m-438
-228 c-291 -385 -493 -646 -501 -647 -5 0 -8 18 -8 39 0 36 21 64 316 422 384
466 368 447 373 436 2 -4 -79 -117 -180 -250z m435 176 c33 -32 61 -61 61 -65
0 -3 4 -10 9 -15 5 -5 6 -3 2 5 -9 14 10 17 19 2 4 -6 34 -33 68 -61 34 -28
91 -79 127 -114 36 -34 70 -64 77 -66 6 -2 80 -62 164 -134 84 -71 198 -168
254 -214 161 -136 275 -242 269 -252 -8 -14 -24 -11 -24 5 0 14 -41 26 -87 26
-18 0 -52 25 -112 80 -252 233 -470 437 -586 549 -72 69 -168 159 -213 199
-75 67 -113 112 -96 112 4 0 35 -26 68 -57z m16 -70 c41 -37 143 -134 225
-217 83 -83 134 -132 115 -111 l-35 40 45 -41 c25 -22 150 -139 279 -260 l234
-219 -48 -6 c-41 -4 -52 -2 -73 18 -14 13 -21 23 -16 23 4 0 -7 16 -26 35 -18
19 -36 32 -40 30 -7 -4 -486 491 -571 590 -23 28 -46 50 -50 50 -8 0 -119 120
-119 129 0 10 3 8 80 -61z m-361 -50 c-220 -329 -432 -633 -440 -633 -5 0 -9
-8 -9 -18 0 -30 -34 -54 -71 -50 l-32 3 157 208 c86 114 193 253 237 310 44
56 107 137 140 180 33 42 62 77 65 77 2 0 -19 -35 -47 -77z m15 -45 c-37 -62
-132 -219 -211 -349 -136 -224 -144 -236 -173 -236 -16 0 -30 2 -30 3 0 2 68
103 151 226 83 123 190 280 237 351 47 70 87 125 90 123 2 -3 -26 -56 -64
-118z m416 -35 c52 -54 212 -220 356 -368 143 -149 280 -291 304 -317 l43 -48
-59 0 -59 0 -81 93 c-122 138 -476 558 -527 624 -25 32 -59 71 -76 87 -17 17
-31 34 -31 38 0 18 39 -14 130 -109z m-502 -210 c-191 -379 -195 -386 -216
-378 -10 4 -23 8 -29 8 -7 0 -13 2 -13 5 0 7 298 501 386 640 38 59 10 -1
-128 -275z m517 116 c61 -73 110 -138 110 -144 0 -5 5 -10 10 -10 15 0 35 -15
35 -26 0 -6 -5 -7 -12 -3 -7 4 -8 3 -4 -5 4 -6 11 -9 15 -6 5 2 92 -95 195
-217 113 -134 182 -224 175 -228 -6 -4 -11 -34 -10 -69 l0 -61 -76 102 c-112
150 -516 717 -552 773 -33 53 -42 84 -13 49 9 -12 67 -81 127 -155z m-48 -21
c37 -53 128 -182 202 -285 229 -320 364 -514 360 -518 -2 -2 -15 -6 -29 -10
-22 -5 -29 1 -58 49 -18 30 -37 58 -42 61 -6 4 -1 -9 10 -28 17 -29 19 -39 9
-63 -9 -24 -13 -26 -20 -14 -172 275 -503 851 -513 895 -10 40 -2 31 81 -87z
m-340 80 c-4 -7 -60 -140 -125 -296 -65 -155 -122 -285 -125 -289 -4 -3 -7 1
-7 10 0 10 -8 17 -20 17 -11 0 -20 4 -20 10 0 5 63 128 140 274 77 146 140
270 140 276 0 5 5 10 11 10 6 0 9 -6 6 -12z m-13 -100 c-4 -13 -7 -30 -8 -38
-1 -8 -37 -122 -80 -252 -68 -205 -82 -238 -99 -238 -11 0 -17 3 -14 6 3 4 2
14 -3 24 -7 13 4 47 41 131 27 63 61 135 75 161 14 27 22 52 19 58 -3 5 -1 10
5 10 6 0 8 5 5 10 -3 6 -1 10 5 10 7 0 9 7 6 16 -4 10 -2 13 6 8 8 -5 9 -2 5
9 -3 10 -2 17 4 17 6 0 8 4 4 9 -3 5 2 26 12 45 19 41 28 47 17 14z m325 -46
c13 -11 13 -12 1 -7 -10 4 -9 2 2 -8 10 -8 15 -17 11 -20 -3 -4 -1 -7 5 -7 16
0 44 -58 36 -72 -4 -6 -3 -8 3 -5 6 4 65 -88 141 -221 138 -242 222 -392 222
-398 0 -2 -9 -4 -19 -4 -14 0 -30 21 -57 74 -21 41 -40 73 -42 71 -2 -1 12
-34 31 -72 l35 -69 -30 -13 c-16 -8 -33 -10 -38 -5 -21 23 -331 763 -329 787
0 7 3 5 6 -3 4 -8 13 -21 22 -28z m124 -403 c153 -380 152 -379 138 -379 -6 0
-11 5 -11 12 0 15 -62 149 -67 145 -2 -2 4 -21 12 -41 17 -39 13 -56 -11 -56
-8 0 -12 -4 -9 -10 3 -5 17 -10 31 -10 13 0 24 -2 24 -4 0 -2 3 -11 6 -20 5
-12 -1 -16 -24 -16 -17 0 -32 6 -36 15 -3 9 -19 15 -41 15 -19 0 -35 5 -35 10
0 6 9 10 20 10 11 0 20 5 20 10 0 6 -12 10 -26 10 -19 0 -25 4 -20 15 3 8 1
15 -5 15 -5 0 -14 12 -20 28 -9 23 -63 363 -74 462 -2 19 -6 51 -10 70 -16 86
-16 86 -5 69 5 -10 70 -167 143 -350z m-461 279 c-6 -24 -14 -86 -17 -140 -3
-53 -10 -122 -15 -155 -6 -32 -10 -59 -10 -60 0 -2 -21 -3 -46 -3 -42 0 -45 1
-38 23 46 153 127 388 131 383 3 -3 1 -25 -5 -48z m949 -5 c13 -16 12 -17 -3
-4 -17 13 -22 21 -14 21 2 0 10 -8 17 -17z m74 -63 c10 -11 16 -20 13 -20 -3
0 -13 9 -23 20 -10 11 -16 20 -13 20 3 0 13 -9 23 -20z m-846 -442 c1 -34 -1
-38 -25 -38 -26 0 -26 0 -20 63 3 34 9 103 13 152 l7 90 12 -115 c7 -63 13
-132 13 -152z m847 200 l29 -33 -32 29 c-31 28 -38 36 -30 36 2 0 16 -15 33
-32z m-836 -328 c0 -28 -2 -30 -37 -28 -37 1 -37 1 -5 5 39 5 42 18 5 28 l-28
8 25 7 c39 12 40 12 40 -20z"/>
<path d="M972 1854 c10 -10 20 -15 24 -12 3 4 -5 12 -18 18 -22 12 -22 12 -6
-6z"/>
<path d="M1307 1619 c12 -15 73 -53 73 -46 0 2 -19 17 -42 32 -24 16 -38 22
-31 14z"/>
<path d="M1300 1566 c0 -3 9 -10 20 -16 11 -6 20 -8 20 -6 0 3 -9 10 -20 16
-11 6 -20 8 -20 6z"/>
<path d="M2310 916 c0 -2 8 -10 18 -17 15 -13 16 -12 3 4 -13 16 -21 21 -21
13z"/>
<path d="M1610 1276 c0 -2 8 -10 18 -17 15 -13 16 -12 3 4 -13 16 -21 21 -21
13z"/>
<path d="M1650 1246 c0 -2 8 -10 18 -17 15 -13 16 -12 3 4 -13 16 -21 21 -21
13z"/>
<path d="M1690 1216 c0 -2 8 -10 18 -17 15 -13 16 -12 3 4 -13 16 -21 21 -21
13z"/>
<path d="M2170 936 c0 -2 8 -10 18 -17 15 -13 16 -12 3 4 -13 16 -21 21 -21
13z"/>
<path d="M2240 886 c0 -2 8 -10 18 -17 15 -13 16 -12 3 4 -13 16 -21 21 -21
13z"/>
<path d="M2280 856 c0 -2 8 -10 18 -17 15 -13 16 -12 3 4 -13 16 -21 21 -21
13z"/>
<path d="M1640 1105 c13 -14 26 -25 28 -25 3 0 -5 11 -18 25 -13 14 -26 25
-28 25 -3 0 5 -11 18 -25z"/>
<path d="M2160 776 c0 -2 8 -10 18 -17 15 -13 16 -12 3 4 -13 16 -21 21 -21
13z"/>
<path d="M2215 730 c10 -11 20 -20 23 -20 3 0 -3 9 -13 20 -10 11 -20 20 -23
20 -3 0 3 -9 13 -20z"/>
<path d="M2250 706 c0 -2 8 -10 18 -17 15 -13 16 -12 3 4 -13 16 -21 21 -21
13z"/>
<path d="M2300 666 c0 -2 8 -10 18 -17 15 -13 16 -12 3 4 -13 16 -21 21 -21
13z"/>
<path d="M2340 636 c0 -2 8 -10 18 -17 15 -13 16 -12 3 4 -13 16 -21 21 -21
13z"/>
<path d="M2430 566 c0 -2 8 -10 18 -17 15 -13 16 -12 3 4 -13 16 -21 21 -21
13z"/>
<path d="M1200 1345 c13 -14 26 -25 28 -25 3 0 -5 11 -18 25 -13 14 -26 25
-28 25 -3 0 5 -11 18 -25z"/>
<path d="M2170 676 c0 -2 8 -10 18 -17 15 -13 16 -12 3 4 -13 16 -21 21 -21
13z"/>
<path d="M2230 626 c0 -2 8 -10 18 -17 15 -13 16 -12 3 4 -13 16 -21 21 -21
13z"/>
<path d="M2302 564 c15 -15 30 -26 33 -23 2 3 -10 16 -28 29 l-32 23 27 -29z"/>
<path d="M1160 1315 c19 -19 36 -35 39 -35 3 0 -10 16 -29 35 -19 19 -36 35
-39 35 -3 0 10 -16 29 -35z"/>
<path d="M1565 1010 c21 -22 41 -40 44 -40 3 0 -13 18 -34 40 -21 22 -41 40
-44 40 -3 0 13 -18 34 -40z"/>
<path d="M1670 918 c24 -27 45 -48 47 -48 8 0 0 9 -44 50 l-48 45 45 -47z"/>
<path d="M2170 576 c0 -2 8 -10 18 -17 15 -13 16 -12 3 4 -13 16 -21 21 -21
13z"/>
<path d="M1270 1406 c0 -2 7 -7 16 -10 8 -3 12 -2 9 4 -6 10 -25 14 -25 6z"/>
<path d="M1665 1160 c10 -11 20 -20 23 -20 3 0 -3 9 -13 20 -10 11 -20 20 -23
20 -3 0 3 -9 13 -20z"/>
<path d="M2210 826 c0 -2 8 -10 18 -17 15 -13 16 -12 3 4 -13 16 -21 21 -21
13z"/>
<path d="M1110 1236 c0 -2 8 -10 18 -17 15 -13 16 -12 3 4 -13 16 -21 21 -21
13z"/>
<path d="M1455 940 c33 -33 62 -60 64 -60 3 0 -21 27 -54 60 -33 33 -62 60
-64 60 -3 0 21 -27 54 -60z"/>
<path d="M1640 745 c63 -63 117 -115 120 -115 2 0 -47 52 -110 115 -63 63
-117 115 -120 115 -2 0 47 -52 110 -115z"/>
<path d="M1065 1220 c10 -11 20 -20 23 -20 3 0 -3 9 -13 20 -10 11 -20 20 -23
20 -3 0 3 -9 13 -20z"/>
<path d="M1450 845 c13 -14 26 -25 28 -25 3 0 -5 11 -18 25 -13 14 -26 25 -28
25 -3 0 5 -11 18 -25z"/>
<path d="M1500 787 c0 -2 15 -16 33 -33 l32 -29 -29 33 c-28 30 -36 37 -36 29z"/>
<path d="M1590 685 c13 -14 26 -25 28 -25 3 0 -5 11 -18 25 -13 14 -26 25 -28
25 -3 0 5 -11 18 -25z"/>
<path d="M1630 644 c0 -6 19 -28 43 -49 l42 -40 -40 45 c-22 25 -41 47 -42 49
-2 2 -3 0 -3 -5z"/>
<path d="M1310 906 c0 -2 8 -10 18 -17 15 -13 16 -12 3 4 -13 16 -21 21 -21
13z"/>
<path d="M1355 850 c10 -11 20 -20 23 -20 3 0 -3 9 -13 20 -10 11 -20 20 -23
20 -3 0 3 -9 13 -20z"/>
<path d="M1395 800 c10 -11 20 -20 23 -20 3 0 -3 9 -13 20 -10 11 -20 20 -23
20 -3 0 3 -9 13 -20z"/>
<path d="M1435 750 c10 -11 20 -20 23 -20 3 0 -3 9 -13 20 -10 11 -20 20 -23
20 -3 0 3 -9 13 -20z"/>
<path d="M1475 700 c10 -11 20 -20 23 -20 3 0 -3 9 -13 20 -10 11 -20 20 -23
20 -3 0 3 -9 13 -20z"/>
<path d="M1500 666 c0 -2 8 -10 18 -17 15 -13 16 -12 3 4 -13 16 -21 21 -21
13z"/>
<path d="M1540 616 c0 -2 8 -10 18 -17 15 -13 16 -12 3 4 -13 16 -21 21 -21
13z"/>
<path d="M1585 560 c10 -11 20 -20 23 -20 3 0 -3 9 -13 20 -10 11 -20 20 -23
20 -3 0 3 -9 13 -20z"/>
<path d="M1625 510 c10 -11 20 -20 23 -20 3 0 -3 9 -13 20 -10 11 -20 20 -23
20 -3 0 3 -9 13 -20z"/>
<path d="M1660 465 c8 -11 26 -31 39 -45 17 -19 21 -20 13 -5 -6 11 -23 31
-38 45 -20 17 -24 19 -14 5z"/>
</g>
</svg>
